<svg xmlns="http://www.w3.org/2000/svg" viewBox="0 0 487.35 117.04"><defs><style>.cls-1{fill:#567dbe;}.cls-2{fill:#85cfed;}.cls-3{fill:#fbd00a;}.cls-4{fill:none;stroke:#414a45;stroke-width:2px;}.cls-5{fill:#414a45;}.cls-6{fill:#4b83c3;}.cls-7{fill:#f05a28;}</style></defs><title>img-2</title><g id="Layer_2" data-name="Layer 2"><g id="Layer_1-2" data-name="Layer 1"><g id="_Group_" data-name="&lt;Group&gt;"><g id="_Group_2" data-name="&lt;Group&gt;"><path class="cls-1" d="M364.45,41.09V68.26H291.24V41.09a1.09,1.09,0,0,1,1.15-1H363.3A1.09,1.09,0,0,1,364.45,41.09ZM300.4,62.76h55.17A2.46,2.46,0,0,0,358,60.28V48.44A2.46,2.46,0,0,0,355.57,46H300.4A2.47,2.47,0,0,0,298,48.44V60.28A2.47,2.47,0,0,0,300.4,62.76Z"/><path class="cls-2" d="M355.57,46A2.46,2.46,0,0,1,358,48.44V60.28a2.46,2.46,0,0,1-2.45,2.48H300.4A2.47,2.47,0,0,1,298,60.28V48.44A2.47,2.47,0,0,1,300.4,46Z"/><path class="cls-3" d="M355.74,75.77v6.84a.91.91,0,0,1-.91.93h-8.47a.93.93,0,0,1-.92-.93V75.77a.93.93,0,0,1,.92-.93h8.47A.92.92,0,0,1,355.74,75.77Z"/><path class="cls-4" d="M355.74,88.91v6.84a.92.92,0,0,1-.91.93h-8.47a.93.93,0,0,1-.92-.93V88.91a.92.92,0,0,1,.92-.92h8.47A.91.91,0,0,1,355.74,88.91Z"/><path class="cls-4" d="M331.29,74.84h8.46a.93.93,0,0,1,.93.93v6.84a.92.92,0,0,1-.92.92h-8.46a.93.93,0,0,1-.93-.93V75.77A.92.92,0,0,1,331.29,74.84Z"/><path class="cls-4" d="M331.29,88h8.46a.93.93,0,0,1,.93.93v6.84a.92.92,0,0,1-.92.92h-8.46a.93.93,0,0,1-.93-.93V88.91A.92.92,0,0,1,331.29,88Z"/><path class="cls-4" d="M325.6,75.77v6.84a.92.92,0,0,1-.92.93h-8.47a.91.91,0,0,1-.91-.93V75.77a.92.92,0,0,1,.91-.93h8.47A.93.93,0,0,1,325.6,75.77Z"/><path class="cls-4" d="M325.6,88.91v6.84a.93.93,0,0,1-.92.93h-8.47a.92.92,0,0,1-.91-.93V88.91a.91.91,0,0,1,.91-.92h8.47A.92.92,0,0,1,325.6,88.91Z"/><path class="cls-4" d="M309.61,74.84a.92.92,0,0,1,.91.93v6.84a.91.91,0,0,1-.91.93h-8.47a.93.93,0,0,1-.92-.93V75.77a.93.93,0,0,1,.92-.93Z"/><path class="cls-3" d="M310.52,88.91v6.84a.92.92,0,0,1-.91.93h-8.47a.93.93,0,0,1-.92-.93V88.91a.92.92,0,0,1,.92-.92h8.47A.91.91,0,0,1,310.52,88.91Z"/><path class="cls-4" d="M316.21,96.68h8.47a.93.93,0,0,0,.92-.93V88.91a.92.92,0,0,0-.92-.92h-8.47a.91.91,0,0,0-.91.92v6.84A.92.92,0,0,0,316.21,96.68Zm0-13.14h8.47a.92.92,0,0,0,.92-.93V75.77a.93.93,0,0,0-.92-.93h-8.47a.92.92,0,0,0-.91.93v6.84A.91.91,0,0,0,316.21,83.54ZM301.14,96.68h8.47a.92.92,0,0,0,.91-.93V88.91a.91.91,0,0,0-.91-.92h-8.47a.92.92,0,0,0-.92.92v6.84A.93.93,0,0,0,301.14,96.68Zm0-13.14h8.47a.91.91,0,0,0,.91-.93V75.77a.92.92,0,0,0-.91-.93h-8.47a.93.93,0,0,0-.92.93v6.84A.93.93,0,0,0,301.14,83.54Zm45.22,13.14h8.47a.92.92,0,0,0,.91-.93V88.91a.91.91,0,0,0-.91-.92h-8.47a.92.92,0,0,0-.92.92v6.84A.93.93,0,0,0,346.36,96.68Zm0-13.14h8.47a.91.91,0,0,0,.91-.93V75.77a.92.92,0,0,0-.91-.93h-8.47a.93.93,0,0,0-.92.93v6.84A.93.93,0,0,0,346.36,83.54ZM331.29,96.68h8.46a.93.93,0,0,0,.93-.93V88.91a.93.93,0,0,0-.93-.92h-8.46a.92.92,0,0,0-.92.92v6.84A.93.93,0,0,0,331.29,96.68Zm0-13.14h8.46a.93.93,0,0,0,.93-.93V75.77a.93.93,0,0,0-.93-.93h-8.46a.93.93,0,0,0-.92.93v6.84A.92.92,0,0,0,331.29,83.54Z"/><path class="cls-4" d="M364.25,114.64a1.2,1.2,0,0,1-.95.44H292.39a1.14,1.14,0,0,1-1.08-.68,1,1,0,0,1-.07-.35v-73a1.09,1.09,0,0,1,1.15-1H363.3a1.09,1.09,0,0,1,1.15,1v73A1,1,0,0,1,364.25,114.64Z"/><path class="cls-4" d="M358,48.44V60.28a2.46,2.46,0,0,1-2.45,2.48H300.4A2.47,2.47,0,0,1,298,60.28V48.44A2.47,2.47,0,0,1,300.4,46h55.17A2.46,2.46,0,0,1,358,48.44Z"/><polyline class="cls-4" points="290.48 68.26 291.24 68.26 364.45 68.26 365.5 68.26"/><path class="cls-4" d="M310.52,82.61a.91.91,0,0,1-.91.93h-8.47a.93.93,0,0,1-.92-.93V75.77a.93.93,0,0,1,.92-.93h8.47a.92.92,0,0,1,.91.93Z"/><path class="cls-4" d="M325.6,82.61a.92.92,0,0,1-.92.93h-8.47a.91.91,0,0,1-.91-.93V75.77a.92.92,0,0,1,.91-.93h8.47a.93.93,0,0,1,.92.93Z"/><path class="cls-4" d="M331.29,74.84h8.46a.92.92,0,0,1,.92.92v6.84a.93.93,0,0,1-.93.93h-8.46a.92.92,0,0,1-.92-.92V75.77A.93.93,0,0,1,331.29,74.84Z"/><path class="cls-4" d="M355.74,82.61a.91.91,0,0,1-.91.93h-8.47a.93.93,0,0,1-.92-.93V75.77a.93.93,0,0,1,.92-.93h8.47a.92.92,0,0,1,.91.93Z"/><path class="cls-4" d="M310.52,95.75a.92.92,0,0,1-.91.93h-8.47a.93.93,0,0,1-.92-.93V88.91a.92.92,0,0,1,.92-.92h8.47a.91.91,0,0,1,.91.92Z"/><path class="cls-4" d="M325.6,95.75a.93.93,0,0,1-.92.93h-8.47a.92.92,0,0,1-.91-.93V88.91a.91.91,0,0,1,.91-.92h8.47a.92.92,0,0,1,.92.92Z"/><path class="cls-4" d="M331.29,88h8.46a.92.92,0,0,1,.92.92v6.84a.93.93,0,0,1-.93.93h-8.46a.92.92,0,0,1-.92-.92V88.91a.93.93,0,0,1,.93-.93Z"/><path class="cls-4" d="M355.74,95.75a.92.92,0,0,1-.91.93h-8.47a.93.93,0,0,1-.92-.93V88.91a.92.92,0,0,1,.92-.92h8.47a.91.91,0,0,1,.91.92Z"/><path class="cls-4" d="M310.52,108.79v.1a.92.92,0,0,1-.91.93h-8.47a.93.93,0,0,1-.92-.93v-6.84a.93.93,0,0,1,.92-.93h8.47a.92.92,0,0,1,.91.93Z"/><path class="cls-4" d="M325.6,108.79v.1a.93.93,0,0,1-.92.93h-8.47a.92.92,0,0,1-.91-.93v-6.84a.92.92,0,0,1,.91-.93h8.47a.93.93,0,0,1,.92.93Z"/><path class="cls-4" d="M340.68,108.79v.1a.93.93,0,0,1-.93.93h-8.46a.93.93,0,0,1-.92-.93v-6.84a.93.93,0,0,1,.92-.93h8.46a.93.93,0,0,1,.93.93Z"/><path class="cls-4" d="M355.74,108.79v.1a.92.92,0,0,1-.91.93h-8.47a.93.93,0,0,1-.92-.93v-6.84a.93.93,0,0,1,.92-.93h8.47a.92.92,0,0,1,.91.93Z"/></g></g><path class="cls-5" d="M332.45,54.36a3.28,3.28,0,1,0-3.28,3.25A3.26,3.26,0,0,0,332.45,54.36Z"/><path class="cls-5" d="M341.27,54.36A3.29,3.29,0,1,0,338,57.61,3.27,3.27,0,0,0,341.27,54.36Z"/><path class="cls-5" d="M350.08,54.36a3.28,3.28,0,1,0-3.28,3.25A3.27,3.27,0,0,0,350.08,54.36Z"/><line class="cls-4" x1="304.72" y1="54.36" x2="310.84" y2="54.36"/><line class="cls-4" x1="307.78" y1="51.34" x2="307.78" y2="57.37"/><g id="_Group_3" data-name="&lt;Group&gt;"><path class="cls-4" d="M168.5,4.45a18.57,18.57,0,1,1-25.9,4.34A18.56,18.56,0,0,1,168.5,4.45Zm.19,22.94a13.47,13.47,0,1,0-18.79,3.15A13.47,13.47,0,0,0,168.69,27.39Z"/><path class="cls-3" d="M165.54,8.61a13.47,13.47,0,1,1-18.79,3.14A13.47,13.47,0,0,1,165.54,8.61Z"/><circle class="cls-4" cx="157.72" cy="19.57" r="18.57" transform="translate(10.76 80.07) rotate(-29.45)"/><path class="cls-4" d="M168.69,27.39a13.47,13.47,0,1,0-18.79,3.15A13.47,13.47,0,0,0,168.69,27.39Z"/></g><path class="cls-5" d="M159.38,18.92l-.36.2h0l.36-.2h0c-.83-1.52-1.3-2.51-.61-3.47a1.66,1.66,0,0,1,2.48-.35,3.08,3.08,0,0,1,1.33,2.38.59.59,0,0,0,.26.41.62.62,0,0,0,.49.09l1.36-.3a.63.63,0,0,0,.48-.69,5.72,5.72,0,0,0-1.46-3.33l2.47-3.46a.64.64,0,0,0-.14-.88l-1-.74a.62.62,0,0,0-.87.14l-2.5,3.51a4.42,4.42,0,0,0-5.3,1.59c-1.61,2.27-.51,4.38.38,6.08.77,1.48,1.44,2.76.55,4-.73,1-1.68,1.13-2.82.32a4.72,4.72,0,0,1-1.8-3,.63.63,0,0,0-.83-.46l-1.35.49a.62.62,0,0,0-.4.71,7.69,7.69,0,0,0,2,3.74l-2.47,3.46a.64.64,0,0,0,.14.88l1.05.74a.62.62,0,0,0,.87-.15l2.5-3.49a4.46,4.46,0,0,0,5.59-1.62C161.55,22.93,160.35,20.71,159.38,18.92Z"/><rect class="cls-3" x="157.94" y="74.56" width="15.78" height="30.93"/><rect class="cls-2" x="204.7" y="71" width="15.78" height="34.49"/><rect class="cls-6" x="181.25" y="64.84" width="15.78" height="40.65"/><rect class="cls-7" x="227.93" y="53.78" width="15.78" height="51.71"/><line class="cls-4" x1="146.74" y1="109.9" x2="255.98" y2="109.9"/><polyline class="cls-4" points="157.48 104.68 157.48 74.75 173.99 74.75 173.99 104.68"/><polyline class="cls-4" points="180.87 104.68 180.87 64.43 197.39 64.43 197.39 104.68"/><polyline class="cls-4" points="204.27 104.68 204.27 70.85 220.78 70.85 220.78 104.68"/><polyline class="cls-4" points="227.66 104.68 227.66 53.42 244.17 53.42 244.17 104.68"/><polyline class="cls-4" points="167.23 65.35 186.95 48.6 211.49 60.76 236.03 29.34"/><path class="cls-4" d="M171.22,65.26a4.13,4.13,0,1,0-4.13,4.13A4.13,4.13,0,0,0,171.22,65.26Z"/><path class="cls-4" d="M171.22,65.26a4.13,4.13,0,1,0-4.13,4.13A4.13,4.13,0,0,0,171.22,65.26Z"/><path class="cls-4" d="M191,49.08a4.13,4.13,0,1,0-4.13,4.13A4.13,4.13,0,0,0,191,49.08Z"/><path class="cls-4" d="M191,49.08a4.13,4.13,0,1,0-4.13,4.13A4.13,4.13,0,0,0,191,49.08Z"/><path class="cls-4" d="M216.17,61A4.13,4.13,0,1,0,212,65.1,4.13,4.13,0,0,0,216.17,61Z"/><path class="cls-4" d="M216.17,61A4.13,4.13,0,1,0,212,65.1,4.13,4.13,0,0,0,216.17,61Z"/><path class="cls-4" d="M239.69,30.21a4.13,4.13,0,1,0-4.13,4.13A4.13,4.13,0,0,0,239.69,30.21Z"/><path class="cls-4" d="M239.69,30.21a4.13,4.13,0,1,0-4.13,4.13A4.13,4.13,0,0,0,239.69,30.21Z"/><line class="cls-4" x1="151.12" y1="100.37" x2="146.99" y2="100.37"/><line class="cls-4" x1="151.12" y1="89.25" x2="146.99" y2="89.25"/><line class="cls-4" x1="151.12" y1="78.14" x2="146.99" y2="78.14"/><line class="cls-4" x1="151.12" y1="67.03" x2="146.99" y2="67.03"/><line class="cls-4" x1="151.12" y1="55.91" x2="146.99" y2="55.91"/><polyline class="cls-4" points="251.89 116.33 258.34 109.88 251.89 103.43"/><line class="cls-4" x1="203.45" y1="42.19" x2="210.8" y2="42.19"/><line class="cls-4" x1="207.13" y1="38.54" x2="207.13" y2="45.83"/><path class="cls-5" d="M217.78,37a1.88,1.88,0,1,0-1.88,1.89A1.88,1.88,0,0,0,217.78,37Z"/><path class="cls-7" d="M475.68,43.46a5.41,5.41,0,1,0,4-6.51A5.42,5.42,0,0,0,475.68,43.46Z"/><path class="cls-4" d="M475.68,43.46a5.41,5.41,0,1,0,4-6.51A5.42,5.42,0,0,0,475.68,43.46Z"/><path class="cls-2" d="M461.56,31.74a4.2,4.2,0,1,0,3.12-5A4.21,4.21,0,0,0,461.56,31.74Z"/><path class="cls-4" d="M461.56,31.74a4.2,4.2,0,1,0,3.12-5A4.21,4.21,0,0,0,461.56,31.74Z"/><line class="cls-4" x1="382.27" y1="32.4" x2="442.08" y2="32.4"/><line class="cls-4" x1="446.49" y1="32.4" x2="454.7" y2="32.4"/><line class="cls-4" x1="471.34" y1="43.17" x2="432.48" y2="43.17"/><line class="cls-4" x1="428.86" y1="43.17" x2="406.89" y2="43.17"/><path class="cls-7" d="M11.67,95.65a5.41,5.41,0,1,1-4-6.51A5.4,5.4,0,0,1,11.67,95.65Z"/><path class="cls-4" d="M11.67,95.65a5.41,5.41,0,1,1-4-6.51A5.4,5.4,0,0,1,11.67,95.65Z"/><path class="cls-2" d="M25.79,83.93a4.2,4.2,0,1,1-3.12-5.05A4.19,4.19,0,0,1,25.79,83.93Z"/><path class="cls-4" d="M25.79,83.93a4.2,4.2,0,1,1-3.12-5.05A4.19,4.19,0,0,1,25.79,83.93Z"/><line class="cls-4" x1="105.09" y1="84.59" x2="45.27" y2="84.59"/><line class="cls-4" x1="40.86" y1="84.59" x2="32.66" y2="84.59"/><line class="cls-4" x1="16.01" y1="95.36" x2="54.87" y2="95.36"/><line class="cls-4" x1="58.49" y1="95.36" x2="80.47" y2="95.36"/></g></g></svg>