<svg xmlns="http://www.w3.org/2000/svg" viewBox="0 0 300.29 117.62"><defs><style>.cls-1,.cls-13{fill:#ffd85c;}.cls-1,.cls-10,.cls-12,.cls-13,.cls-14,.cls-2,.cls-3,.cls-4,.cls-5,.cls-7,.cls-8,.cls-9{stroke:#414a45;}.cls-1,.cls-12,.cls-13,.cls-2,.cls-4,.cls-5,.cls-7,.cls-9{stroke-miterlimit:10;}.cls-12,.cls-2{fill:#dea826;}.cls-10,.cls-14,.cls-3,.cls-7,.cls-8{fill:none;}.cls-14,.cls-3,.cls-8{stroke-linecap:round;stroke-linejoin:round;}.cls-3{stroke-width:2px;}.cls-4{fill:#a1dadf;}.cls-5{fill:#ffc226;}.cls-6{fill:#fcbf10;}.cls-10,.cls-8{stroke-width:2.19px;}.cls-9{fill:#dfe3e5;}.cls-11{fill:#414a45;}.cls-12,.cls-13{stroke-width:0.76px;}.cls-14{stroke-width:2.29px;}</style></defs><title>img-3</title><g id="Layer_2" data-name="Layer 2"><g id="Layer_1-2" data-name="Layer 1"><rect class="cls-1" x="115.94" y="30.42" width="81.33" height="72.59"/><rect class="cls-2" x="115.94" y="97.07" width="81.33" height="5.95"/><polyline class="cls-3" points="142.33 30.16 197.55 30.16 197.55 102.72 137.68 102.72"/><polyline class="cls-3" points="122.47 30.16 115.18 30.16 115.18 102.72 127.23 102.72"/><rect class="cls-4" x="147.83" y="37.19" width="43.15" height="18.33"/><rect class="cls-3" x="147.83" y="37.19" width="43.15" height="18.33"/><rect class="cls-5" x="122.9" y="23.15" width="18.92" height="65.19"/><rect class="cls-2" x="122.9" y="83.35" width="18.92" height="5"/><rect class="cls-3" x="122.9" y="23.15" width="18.92" height="65.19"/><path class="cls-3" d="M114.7,34.37A11.18,11.18,0,0,0,106.84,45v61.58a10,10,0,0,0,10,10h5a10,10,0,0,0,10-10V89"/><line class="cls-3" x1="149.47" y1="61.93" x2="155.1" y2="61.93"/><line class="cls-3" x1="149.47" y1="68.53" x2="155.1" y2="68.53"/><line class="cls-3" x1="149.47" y1="75.14" x2="155.1" y2="75.14"/><line class="cls-3" x1="149.47" y1="81.74" x2="155.1" y2="81.74"/><line class="cls-3" x1="160.87" y1="61.93" x2="166.5" y2="61.93"/><line class="cls-3" x1="160.87" y1="68.53" x2="166.5" y2="68.53"/><line class="cls-3" x1="160.87" y1="75.14" x2="166.5" y2="75.14"/><line class="cls-3" x1="160.87" y1="81.74" x2="166.5" y2="81.74"/><line class="cls-3" x1="172.27" y1="61.93" x2="177.89" y2="61.93"/><line class="cls-3" x1="172.27" y1="68.53" x2="177.89" y2="68.53"/><line class="cls-3" x1="172.27" y1="75.14" x2="177.89" y2="75.14"/><line class="cls-3" x1="172.27" y1="81.74" x2="177.89" y2="81.74"/><line class="cls-3" x1="183.67" y1="61.93" x2="189.29" y2="61.93"/><line class="cls-3" x1="183.67" y1="68.53" x2="189.29" y2="68.53"/><line class="cls-3" x1="183.67" y1="75.14" x2="189.29" y2="75.14"/><line class="cls-3" x1="183.67" y1="81.74" x2="189.29" y2="81.74"/><path class="cls-6" d="M291.41,92.8a3.95,3.95,0,1,0,2.93-4.75A4,4,0,0,0,291.41,92.8Z"/><path class="cls-7" d="M291.41,92.8a3.95,3.95,0,1,0,2.93-4.75A4,4,0,0,0,291.41,92.8Z"/><path class="cls-8" d="M291.41,92.8a3.95,3.95,0,1,0,2.93-4.75A4,4,0,0,0,291.41,92.8Z"/><path class="cls-9" d="M281.11,84.25a3.06,3.06,0,1,0,2.27-3.69A3.06,3.06,0,0,0,281.11,84.25Z"/><path class="cls-8" d="M281.11,84.25a3.06,3.06,0,1,0,2.27-3.69A3.06,3.06,0,0,0,281.11,84.25Z"/><line class="cls-10" x1="223.25" y1="84.73" x2="266.89" y2="84.73"/><line class="cls-10" x1="270.11" y1="84.73" x2="276.1" y2="84.73"/><line class="cls-10" x1="288.24" y1="92.59" x2="259.89" y2="92.59"/><line class="cls-10" x1="257.25" y1="92.59" x2="241.21" y2="92.59"/><path class="cls-11" d="M.58,32.17A2.23,2.23,0,1,0,3.73,32,2.23,2.23,0,0,0,.58,32.17Z"/><path class="cls-11" d="M7,28.77a1.2,1.2,0,0,0,.07,1.69A1.2,1.2,0,1,0,8.71,28.7,1.19,1.19,0,0,0,7,28.77Z"/><g id="_Group_" data-name="&lt;Group&gt;"><path class="cls-12" d="M73.08,28.62a26.28,26.28,0,0,1-5.6,16.17l.58,2.33,2.77,11.12-10.33-3-5-1.44A30.73,30.73,0,0,1,37,55.31a14.93,14.93,0,0,0,2-7.45c0-8.68-7.47-15.7-16.67-15.7a17.5,17.5,0,0,0-7.09,1.48l-.05-.12a23.34,23.34,0,0,1-.46-4.9c0-15.17,13.07-27.47,29.18-27.47S73.08,13.45,73.08,28.62Z"/><path class="cls-13" d="M37,55.31a16.84,16.84,0,0,1-14.67,8.24,17.41,17.41,0,0,1-8-1.91L6.47,63.91l1.86-7.49a15,15,0,0,1-2.7-8.56,15.67,15.67,0,0,1,9.59-14.22,17.5,17.5,0,0,1,7.09-1.48c9.2,0,16.67,7,16.67,15.7A14.93,14.93,0,0,1,37,55.31Z"/><path class="cls-14" d="M37,55.31h0a30.73,30.73,0,0,0,18.54-1.49l5,1.44,10.33,3L68.06,47.12l-.58-2.33a26.28,26.28,0,0,0,5.6-16.17C73.08,13.45,60,1.15,43.89,1.15S14.71,13.45,14.71,28.62a23.34,23.34,0,0,0,.46,4.9"/><path class="cls-14" d="M37,55.31a14.93,14.93,0,0,0,2-7.45c0-8.68-7.47-15.7-16.67-15.7a17.5,17.5,0,0,0-7.09,1.48A15.67,15.67,0,0,0,5.63,47.86a15,15,0,0,0,2.7,8.56L6.47,63.91l7.85-2.27a17.41,17.41,0,0,0,8,1.91A16.84,16.84,0,0,0,37,55.31Z"/><line class="cls-14" x1="17.15" y1="47.9" x2="14" y2="47.9"/><line class="cls-14" x1="23.88" y1="47.9" x2="20.73" y2="47.9"/><line class="cls-14" x1="30.61" y1="47.9" x2="27.46" y2="47.9"/></g><path class="cls-11" d="M34.9,28a2.38,2.38,0,1,0-2.38,2.38A2.38,2.38,0,0,0,34.9,28Z"/><path class="cls-11" d="M46.17,28a2.38,2.38,0,1,0-2.38,2.38A2.38,2.38,0,0,0,46.17,28Z"/><path class="cls-11" d="M57.44,28a2.38,2.38,0,1,0-2.38,2.38A2.37,2.37,0,0,0,57.44,28Z"/></g></g></svg>