<svg xmlns="http://www.w3.org/2000/svg" viewBox="0 0 487.39 229.34"><defs><style>.cls-1{fill:#f5ce3e;}.cls-2{fill:#ff9e18;}.cls-3{fill:#414a45;}.cls-10,.cls-11,.cls-4,.cls-6,.cls-8{fill:none;stroke:#414a45;}.cls-4{stroke-miterlimit:10;}.cls-4,.cls-6,.cls-8{stroke-width:2.24px;}.cls-5{fill:#929497;}.cls-6{stroke-linecap:round;stroke-linejoin:round;}.cls-7{fill:#00bed6;}.cls-9{fill:#fff;}.cls-10,.cls-11{stroke-width:2px;}.cls-11{stroke-dasharray:47.39;}.cls-12{fill:#231f20;}.cls-13{fill:#707070;}.cls-14{fill:#1dcad3;}.cls-15{fill:#b2c8e7;}.cls-16{fill:#ffcd00;}</style></defs><title>img-2_1</title><g id="Layer_2" data-name="Layer 2"><g id="Layer_1-2" data-name="Layer 1"><g id="_Group_" data-name="&lt;Group&gt;"><path class="cls-1" d="M433.27,98.78a13.31,13.31,0,1,1,13.29,13.32A13.32,13.32,0,0,1,433.27,98.78Zm14-8.91h-1.1a.17.17,0,0,0-.18.18v1.86a3.5,3.5,0,0,0-3,3.5c0,2.2,1.67,3,3.14,3.81s2.62,1.3,2.62,2.89c0,1.28-.79,2-2.21,2a4.44,4.44,0,0,1-3-1.33.38.38,0,0,0-.16,0,.19.19,0,0,0-.11.09l-.74,1a.19.19,0,0,0,.05.23,6.34,6.34,0,0,0,3.39,1.6v1.83a.17.17,0,0,0,.18.19h1.1a.19.19,0,0,0,.21-.19v-1.85a3.55,3.55,0,0,0,3.14-3.67c0-2.54-1.79-3.42-3.37-4.17-1.26-.64-2.38-1.17-2.38-2.47a1.79,1.79,0,0,1,1.94-1.86,3,3,0,0,1,2.39,1.1.17.17,0,0,0,.27,0l.8-.9a.17.17,0,0,0,0-.25,4.66,4.66,0,0,0-2.79-1.56V90.05A.19.19,0,0,0,447.27,89.87Z"/><path class="cls-2" d="M446.56,112.1a13.32,13.32,0,1,0-13.29-13.32A13.32,13.32,0,0,0,446.56,112.1Zm0-31.68A18.36,18.36,0,1,1,428.2,98.78,18.35,18.35,0,0,1,446.56,80.42Z"/><path class="cls-3" d="M446.17,89.87h1.1a.19.19,0,0,1,.21.18v1.83a4.66,4.66,0,0,1,2.79,1.56.17.17,0,0,1,0,.25l-.8.9a.17.17,0,0,1-.27,0,3,3,0,0,0-2.39-1.1,1.79,1.79,0,0,0-1.94,1.86c0,1.3,1.12,1.83,2.38,2.47,1.58.75,3.37,1.63,3.37,4.17a3.55,3.55,0,0,1-3.14,3.67v1.85a.19.19,0,0,1-.21.19h-1.1a.17.17,0,0,1-.18-.19v-1.83a6.34,6.34,0,0,1-3.39-1.6.19.19,0,0,1-.05-.23l.74-1a.19.19,0,0,1,.11-.09.38.38,0,0,1,.16,0,4.44,4.44,0,0,0,3,1.33c1.42,0,2.21-.71,2.21-2,0-1.59-1.29-2.23-2.62-2.89S443,97.61,443,95.41a3.5,3.5,0,0,1,3-3.5V90.05A.17.17,0,0,1,446.17,89.87Z"/><path class="cls-4" d="M464.92,98.78a18.36,18.36,0,1,0-18.36,18.36A18.35,18.35,0,0,0,464.92,98.78Z"/><path class="cls-4" d="M459.88,98.78a13.31,13.31,0,1,0-13.32,13.32A13.32,13.32,0,0,0,459.88,98.78Z"/><rect class="cls-4" x="426.58" y="117.6" width="37.47" height="4.79"/><line class="cls-4" x1="432.42" y1="117.94" x2="432.42" y2="121.34"/><line class="cls-4" x1="436.71" y1="117.94" x2="436.71" y2="121.34"/><rect class="cls-4" x="431.62" y="122.53" width="37.47" height="4.77"/><line class="cls-4" x1="463.25" y1="122.85" x2="463.25" y2="126.24"/><line class="cls-4" x1="458.96" y1="122.85" x2="458.96" y2="126.24"/><rect class="cls-4" x="426.58" y="127.34" width="37.47" height="4.77"/><line class="cls-4" x1="432.42" y1="127.66" x2="432.42" y2="131.05"/><line class="cls-4" x1="460.52" y1="127.66" x2="460.52" y2="131.05"/><rect class="cls-4" x="431.62" y="132.24" width="37.47" height="4.77"/><line class="cls-4" x1="463.25" y1="132.59" x2="463.25" y2="135.96"/><line class="cls-4" x1="458.96" y1="132.59" x2="458.96" y2="135.96"/><rect class="cls-4" x="428.41" y="137.24" width="37.47" height="4.77"/><line class="cls-4" x1="460.04" y1="137.56" x2="460.04" y2="140.95"/><line class="cls-4" x1="455.75" y1="137.56" x2="455.75" y2="140.95"/><rect class="cls-4" x="424.03" y="142.26" width="37.5" height="4.77"/><line class="cls-4" x1="455.66" y1="142.61" x2="455.66" y2="145.97"/></g><polygon class="cls-5" points="454.48 98.14 470.64 115.89 471.29 108.47 484.63 114.77 486.27 111.44 472.76 104.87 478.37 99.57 454.48 98.14"/><polygon class="cls-6" points="454.48 98.14 470.64 115.89 471.29 108.47 484.63 114.77 486.27 111.44 472.76 104.87 478.37 99.57 454.48 98.14"/><g id="_Group_2" data-name="&lt;Group&gt;"><g id="_Group_3" data-name="&lt;Group&gt;"><path class="cls-7" d="M27.46,87.09a.19.19,0,0,0-.21-.2H26.2a.2.2,0,0,0-.18.2v1.77a3.37,3.37,0,0,0-2.83,3.37c0,2.08,1.62,2.89,3,3.59s2.49,1.27,2.49,2.78c0,1.21-.72,1.91-2.09,1.91a4.32,4.32,0,0,1-2.91-1.26s-.09,0-.14,0a.14.14,0,0,0-.11.07l-.67,1a.16.16,0,0,0,0,.22A6.12,6.12,0,0,0,26,102v3.72a11.33,11.33,0,1,1,1.44,0V102a3.36,3.36,0,0,0,3-3.49c0-2.43-1.71-3.26-3.21-4C26,93.91,25,93.4,25,92.14a1.7,1.7,0,0,1,1.84-1.77,3,3,0,0,1,2.31,1,.11.11,0,0,0,.11.07.12.12,0,0,0,.11-.07l.78-.85a.18.18,0,0,0,0-.25,4.44,4.44,0,0,0-2.66-1.48Z"/><path class="cls-3" d="M26.58,105.75a5.77,5.77,0,0,0,.83,0,.17.17,0,0,1-.18.18h-1a.19.19,0,0,1-.18-.16A4.87,4.87,0,0,0,26.58,105.75Z"/><path class="cls-3" d="M27.23,105.89a.17.17,0,0,0,.18-.18h.05v1.17a6.7,6.7,0,0,1-.88,0,5.24,5.24,0,0,1-.56,0v-1.17h0a.19.19,0,0,0,.18.16Z"/><path class="cls-3" d="M29.12,91.42a3,3,0,0,0-2.31-1A1.7,1.7,0,0,0,25,92.14c0,1.26,1.05,1.77,2.26,2.35,1.5.74,3.21,1.57,3.21,4a3.36,3.36,0,0,1-3,3.49v3.73h-.05a5.77,5.77,0,0,1-.83,0,4.87,4.87,0,0,1-.54,0h0V102a6.12,6.12,0,0,1-3.23-1.53.16.16,0,0,1,0-.22l.67-1a.14.14,0,0,1,.11-.07c.05,0,.11,0,.14,0a4.32,4.32,0,0,0,2.91,1.26c1.37,0,2.09-.7,2.09-1.91,0-1.51-1.19-2.11-2.49-2.78s-3-1.51-3-3.59A3.37,3.37,0,0,1,26,88.86V87.09a.2.2,0,0,1,.18-.2h1.05a.19.19,0,0,1,.21.2v1.75a4.44,4.44,0,0,1,2.66,1.48.18.18,0,0,1,0,.25l-.78.85a.12.12,0,0,1-.11.07A.11.11,0,0,1,29.12,91.42Z"/><path class="cls-6" d="M33.85,109.7a17.11,17.11,0,1,0-14.51,0"/><polyline class="cls-6" points="19.34 109.7 19.34 114.95 33.85 112.89 33.85 109.7"/><line class="cls-8" x1="19.34" y1="118.04" x2="33.85" y2="115.98"/><line class="cls-8" x1="20.39" y1="121.01" x2="32.79" y2="119.26"/><line class="cls-8" x1="22.03" y1="124.1" x2="31.13" y2="122.8"/><path class="cls-8" d="M27.41,105.71h.05a11.3,11.3,0,1,0-1.44,0h0"/><line class="cls-8" x1="26.33" y1="67.55" x2="26.33" y2="73.16"/><line class="cls-8" x1="13.08" y1="71.23" x2="15.88" y2="76.1"/><line class="cls-8" x1="3.43" y1="81.06" x2="8.3" y2="83.88"/><line class="cls-8" y1="94.38" x2="5.63" y2="94.38"/><line class="cls-8" x1="53.18" y1="93.89" x2="47.55" y2="93.89"/><line class="cls-8" x1="49.48" y1="80.63" x2="44.61" y2="83.43"/><line class="cls-8" x1="39.66" y1="70.99" x2="36.85" y2="75.85"/></g></g><path class="cls-9" d="M338.87,2l-9.64,16.4L319.69,2l-9.64,16.4L300.5,2l-9.64,16.4L281.32,2l-9.64,16.4L262.13,2l-9.64,16.4L242.93,2l-9.62,16.4L223.75,2l-9.63,16.4L204.56,2,192.28,23V196.48l103.78-1.31c.74,17.78,12.31,31.94,26.6,31.94,14.47,0,26.18-14.51,26.66-32.61l1.75,0V23Z"/><path class="cls-10" d="M192.34,176.88V23L204.63,2l9.56,16.4L223.81,2l9.56,16.4L243,2l9.56,16.4L262.2,2l9.54,16.4L281.38,2l9.55,16.4L300.57,2l9.54,16.4L319.75,2l9.55,16.4L338.94,2l12.2,21h0V192.69q0,.72,0,1.44v.17c0,.49,0,1-.07,1.44a3.24,3.24,0,0,1,0,.45v.08c0,.48-.08,1-.13,1.44,0,.13,0,.25,0,.36a.08.08,0,0,1,0,0c0,.26-.07.52-.09.78l-.12.94v0c0,.19-.07.36-.09.54-.07.37-.12.74-.19,1.12v.05a4.51,4.51,0,0,0-.1.53c-.07.34-.14.67-.2,1a.54.54,0,0,0,0,.1c0,.21-.11.41-.16.63s-.12.54-.18.81a.94.94,0,0,0,0,.16c-.06.22-.12.43-.17.65s-.12.46-.19.68l-.08.23c-.07.23-.13.44-.2.66s-.12.39-.17.58-.07.2-.11.29-.14.43-.22.65-.11.33-.17.49-.08.22-.13.34-.18.46-.27.69l-.14.39-.18.38c-.08.22-.19.46-.29.68s-.09.24-.14.36-.12.25-.19.37-.22.48-.33.71a3.18,3.18,0,0,1-.16.32c-.06.13-.13.24-.18.36l-.4.75c-.06.11-.12.22-.17.33s-.12.21-.19.3c-.14.26-.29.53-.45.78s-.13.23-.21.35l-.14.22c-.2.31-.39.6-.6.9a3.48,3.48,0,0,1-.22.36.38.38,0,0,1-.09.12c-.33.47-.68.95-1,1.4a.14.14,0,0,1,0,0,.87.87,0,0,0-.09.11c-.37.47-.76.91-1.14,1.35-.07.06-.11.14-.17.2l-.21.22-.44.47c-.17.17-.35.34-.52.52l-.45.43-.26.25-.37.32-.25.22c-.31.26-.61.51-.94.76a.5.5,0,0,1-.16.11c-.26.21-.54.41-.82.61l-.28.18-.84.55-.16.1-1,.57-.27.13c-.28.14-.53.28-.8.4l-.3.12c-.35.16-.7.3-1.07.44l-.1,0c-.33.11-.65.23-1,.33a1.4,1.4,0,0,0-.31.09l-.91.22-.23.06c-.37.08-.74.13-1.12.2l-.26,0-.92.1-.31,0c-.39,0-.77,0-1.17,0H192.34"/><path class="cls-5" d="M159.37,191.87c0,.82,0,1.63.11,2.43a.59.59,0,0,0,0,.11h0c0,.68.12,1.34.18,2,0,.2.06.41.07.61,0,.45.12.9.18,1.34a1.35,1.35,0,0,1,0,.18c0,.12,0,.24.05.37l.33,1.79.12.64c.15.69.31,1.39.49,2.07l0,.12c.18.72.38,1.43.61,2.12,0,.2.12.39.18.59.17.54.36,1.06.54,1.58,0,.13.1.26.14.37s.05.12.06.17c.2.53.41,1,.64,1.57a.7.7,0,0,0,.08.2c.24.58.5,1.14.78,1.69a.34.34,0,0,0,.05.14l.5,1a2.1,2.1,0,0,0,.13.26c.23.44.47.86.71,1.28l0,.05c.35.58.7,1.15,1.06,1.7l.11.19.22.3c.24.35.46.69.73,1,.06.08.13.2.2.28l.15.22c.23.28.45.56.69.84a3.1,3.1,0,0,0,.27.34l.12.14c.18.23.39.46.59.68s.23.27.36.4l.08.09c.18.19.35.37.54.55l.42.44a.38.38,0,0,1,.09.08l.51.45.47.46.11.07c.14.13.3.25.45.37l.5.43.13.1c.15.12.32.23.48.35s.3.24.46.34l.17.12c.16.12.32.22.49.33s.28.18.41.28l.24.13.49.3.38.22.31.15a4.74,4.74,0,0,0,.5.26l.3.17.36.15c.19.1.37.18.56.26l.27.11.4.16c.19.06.38.14.56.21l.25.08.42.13c.21.07.42.14.63.19l.24.07.39.09c.25.07.49.12.74.17a1.58,1.58,0,0,0,.25.05l.36.06.79.12a2.72,2.72,0,0,1,.3,0c.11,0,.2,0,.29,0,.35,0,.69.06,1.05.07l.34,0H326.5l-.76,0c-.34,0-.69,0-1-.07l-.58-.06-.8-.12-.62-.11c-.24,0-.48-.1-.73-.17l-.62-.16c-.21-.05-.42-.12-.65-.19l-.66-.21-.55-.21-.68-.27a4.64,4.64,0,0,1-.55-.26c-.21-.09-.45-.21-.66-.32a4.34,4.34,0,0,1-.53-.26l-.66-.37-.49-.3c-.23-.13-.44-.27-.65-.41l-.5-.33-.64-.46-.47-.35c-.21-.17-.41-.34-.62-.53s-.32-.24-.47-.37l-.55-.5c-.17-.17-.35-.31-.52-.48l-.5-.51-.56-.56-.43-.49c-.2-.22-.41-.45-.6-.68s-.26-.31-.39-.48l-.67-.84c-.13-.16-.26-.34-.38-.5-.24-.34-.49-.68-.73-1-.1-.16-.21-.31-.31-.48-.36-.55-.73-1.13-1.06-1.71l-.74-1.32a1.22,1.22,0,0,0-.15-.27l-.53-1.1c-.27-.55-.54-1.12-.78-1.69a1.77,1.77,0,0,1-.06-.17c-.24-.53-.45-1.07-.65-1.61l-.2-.51c-.18-.52-.37-1.06-.55-1.6l-.18-.59c-.22-.69-.42-1.4-.62-2.12a.59.59,0,0,0,0-.11c-.19-.68-.33-1.38-.49-2.08,0-.21-.09-.42-.12-.63-.12-.6-.22-1.2-.33-1.8,0-.18,0-.36-.09-.55-.07-.44-.12-.89-.17-1.34,0-.2-.06-.41-.08-.61-.07-.66-.14-1.32-.17-2a.48.48,0,0,0,0-.13q-.07-1.2-.09-2.43Z"/><path class="cls-10" d="M159.37,191.87c0,.82,0,1.63.11,2.43a.59.59,0,0,0,0,.11h0c0,.68.12,1.34.18,2,0,.2.06.41.07.61,0,.45.12.9.18,1.34a1.35,1.35,0,0,1,0,.18c0,.12,0,.24.05.37l.33,1.79.12.64c.15.69.31,1.39.49,2.07l0,.12c.18.72.38,1.43.61,2.12,0,.2.12.39.18.59.17.54.36,1.06.54,1.58,0,.13.1.26.14.37s.05.12.06.17c.2.53.41,1,.64,1.57a.7.7,0,0,0,.08.2c.24.58.5,1.14.78,1.69a.34.34,0,0,0,.05.14l.5,1a2.1,2.1,0,0,0,.13.26c.23.44.47.86.71,1.28l0,.05c.35.58.7,1.15,1.06,1.7l.11.19.22.3c.24.35.46.69.73,1,.06.08.13.2.2.28l.15.22c.23.28.45.56.69.84a3.1,3.1,0,0,0,.27.34l.12.14c.18.23.39.46.59.68s.23.27.36.4l.08.09c.18.19.35.37.54.55l.42.44a.38.38,0,0,1,.09.08l.51.45.47.46.11.07c.14.13.3.25.45.37l.5.43.13.1c.15.12.32.23.48.35s.3.24.46.34l.17.12c.16.12.32.22.49.33s.28.18.41.28l.24.13.49.3.38.22.31.15a4.74,4.74,0,0,0,.5.26l.3.17.36.15c.19.1.37.18.56.26l.27.11.4.16c.19.06.38.14.56.21l.25.08.42.13c.21.07.42.14.63.19l.24.07.39.09c.25.07.49.12.74.17a1.58,1.58,0,0,0,.25.05l.36.06.79.12a2.72,2.72,0,0,1,.3,0c.11,0,.2,0,.29,0,.35,0,.69.06,1.05.07l.34,0H326.5l-.76,0c-.34,0-.69,0-1-.07l-.58-.06-.8-.12-.62-.11c-.24,0-.48-.1-.73-.17l-.62-.16c-.21-.05-.42-.12-.65-.19l-.66-.21-.55-.21-.68-.27a4.64,4.64,0,0,1-.55-.26c-.21-.09-.45-.21-.66-.32a4.34,4.34,0,0,1-.53-.26l-.66-.37-.49-.3c-.23-.13-.44-.27-.65-.41l-.5-.33-.64-.46-.47-.35c-.21-.17-.41-.34-.62-.53s-.32-.24-.47-.37l-.55-.5c-.17-.17-.35-.31-.52-.48l-.5-.51-.56-.56-.43-.49c-.2-.22-.41-.45-.6-.68s-.26-.31-.39-.48l-.67-.84c-.13-.16-.26-.34-.38-.5-.24-.34-.49-.68-.73-1-.1-.16-.21-.31-.31-.48-.36-.55-.73-1.13-1.06-1.71l-.74-1.32a1.22,1.22,0,0,0-.15-.27l-.53-1.1c-.27-.55-.54-1.12-.78-1.69a1.77,1.77,0,0,1-.06-.17c-.24-.53-.45-1.07-.65-1.61l-.2-.51c-.18-.52-.37-1.06-.55-1.6l-.18-.59c-.22-.69-.42-1.4-.62-2.12a.59.59,0,0,0,0-.11c-.19-.68-.33-1.38-.49-2.08,0-.21-.09-.42-.12-.63-.12-.6-.22-1.2-.33-1.8,0-.18,0-.36-.09-.55-.07-.44-.12-.89-.17-1.34,0-.2-.06-.41-.08-.61-.07-.66-.14-1.32-.17-2a.48.48,0,0,0,0-.13q-.07-1.2-.09-2.43Z"/><line class="cls-10" x1="341.2" y1="39.49" x2="204.06" y2="39.49"/><line class="cls-11" x1="336.83" y1="164.37" x2="323.2" y2="164.37"/><line class="cls-11" x1="314.03" y1="164.37" x2="300.41" y2="164.37"/><line class="cls-11" x1="291.22" y1="164.37" x2="277.59" y2="164.37"/><line class="cls-11" x1="268.41" y1="164.37" x2="254.78" y2="164.37"/><line class="cls-11" x1="245.59" y1="164.37" x2="231.97" y2="164.37"/><line class="cls-11" x1="222.78" y1="164.37" x2="209.16" y2="164.37"/><path class="cls-12" d="M231.76,74.28v-14h2.15v5.64h.1l2.63-5.64h2.26l-1.41,2.83L236.08,66l3.21,8.33h-2.21l-2.24-6c-.15.32-.31.64-.46,1s-.31.65-.47,1v4.09Z"/><path class="cls-12" d="M240.29,70.92v-7a5.53,5.53,0,0,1,.19-1.51,3.39,3.39,0,0,1,.59-1.17,2.76,2.76,0,0,1,1.07-.77,4,4,0,0,1,1.56-.27,4.52,4.52,0,0,1,1.62.25,2.6,2.6,0,0,1,1.05.74,2.91,2.91,0,0,1,.55,1.16,6.13,6.13,0,0,1,.17,1.55V70.7a4.08,4.08,0,0,1-.82,2.76,4.11,4.11,0,0,1-5.18,0A3.74,3.74,0,0,1,240.29,70.92Zm2.19,0a1.76,1.76,0,0,0,.27,1,1,1,0,0,0,.93.43,1,1,0,0,0,.94-.45,2,2,0,0,0,.28-1.08V63.72a2.17,2.17,0,0,0-.25-1,1,1,0,0,0-1-.46,1.06,1.06,0,0,0-.62.17,1.34,1.34,0,0,0-.37.42,2,2,0,0,0-.18.56,3,3,0,0,0-.05.57Z"/><path class="cls-12" d="M248.06,62.34V60.29h6.7v2.05h-2.25V74.28h-2.19V62.34Z"/><path class="cls-12" d="M255.93,74.28v-14h2.19v14Z"/><path class="cls-12" d="M259.64,74.28v-2l3.72-10H259.8V60.29h5.85v2l-3.71,10h3.69v2Z"/><path class="cls-12" d="M266.28,74.28c.47-2.34.94-4.68,1.41-7s.93-4.65,1.39-7h2.41l2.82,14h-2.19l-.55-2.9H269l-.24,1.44c-.08.5-.16,1-.24,1.46Zm3-5h1.92l-.9-5.81h-.1c-.13,1-.27,1.92-.43,2.88S269.46,68.33,269.29,69.33Z"/><path class="cls-12" d="M275.46,71V64a6.33,6.33,0,0,1,.17-1.48,3.24,3.24,0,0,1,.58-1.21,2.79,2.79,0,0,1,1.05-.83,3.84,3.84,0,0,1,1.6-.3,4.21,4.21,0,0,1,1.5.24,2.87,2.87,0,0,1,1,.67,2.9,2.9,0,0,1,.61,1,4.38,4.38,0,0,1,.19,1.3l-2.13.54a2.43,2.43,0,0,0-.29-1.25,1,1,0,0,0-.94-.48,1.06,1.06,0,0,0-.62.16,1.11,1.11,0,0,0-.37.41,1.69,1.69,0,0,0-.18.55,2.72,2.72,0,0,0-.06.55V71a2.47,2.47,0,0,0,.05.44,1.21,1.21,0,0,0,.17.46.93.93,0,0,0,.36.35,1.15,1.15,0,0,0,.59.13c.81,0,1.22-.57,1.23-1.72.36.07.73.12,1.09.17l1.1.15a3.79,3.79,0,0,1-.88,2.53,3.18,3.18,0,0,1-2.48.93,3.33,3.33,0,0,1-2.55-.88A3.58,3.58,0,0,1,275.46,71Z"/><path class="cls-12" d="M283.79,74.28v-14H286v14Z"/><path class="cls-12" d="M287,72.79l1.61-1.24a1.82,1.82,0,0,0,.6.57,1.3,1.3,0,0,0,.69.22,1,1,0,0,0,.95-.45,1.81,1.81,0,0,0,.3-1V60.29h2.18V70.8a3.76,3.76,0,0,1-.87,2.66,3.28,3.28,0,0,1-2.54.94,3.54,3.54,0,0,1-1.66-.4A3.17,3.17,0,0,1,287,72.79Z"/><path class="cls-12" d="M294.66,74.28c.47-2.34.94-4.68,1.4-7s.94-4.65,1.4-7h2.41l2.82,14H300.5l-.55-2.9h-2.62l-.24,1.44c-.08.5-.16,1-.24,1.46Zm3-5h1.92l-.9-5.81h-.1c-.13,1-.27,1.92-.43,2.88S297.84,68.33,297.67,69.33Z"/><path class="cls-12" d="M216.17,95.66V91.48a6.92,6.92,0,0,1,.32-2.18,5,5,0,0,1,1-1.74,4.22,4.22,0,0,1,1.65-1.16,6.14,6.14,0,0,1,2.38-.42,5.14,5.14,0,0,1,3.87,1.35A5,5,0,0,1,226.69,91V94a14,14,0,0,1-.69,4.67l-4.42,11.51h-3.92L221.54,100l-.13-.14a2.57,2.57,0,0,1-1.51.41,3.67,3.67,0,0,1-2.71-1A5,5,0,0,1,216.17,95.66Zm3.68.18a1.33,1.33,0,0,0,.45,1.07,1.72,1.72,0,0,0,1.14.37,1.35,1.35,0,0,0,1.18-.53,2,2,0,0,0,.38-1.21V90.91a1.3,1.3,0,0,0-.43-1,1.72,1.72,0,0,0-1.13-.36,1.77,1.77,0,0,0-1.12.36,1.26,1.26,0,0,0-.47,1Z"/><path class="cls-12" d="M230.12,95.66V91.48a6.92,6.92,0,0,1,.33-2.18,5,5,0,0,1,1-1.74,4.33,4.33,0,0,1,1.66-1.16,6.1,6.1,0,0,1,2.38-.42,5.18,5.18,0,0,1,3.87,1.35,5,5,0,0,1,1.3,3.62V94a14,14,0,0,1-.69,4.67l-4.42,11.51h-3.92L235.5,100l-.14-.14a2.53,2.53,0,0,1-1.51.41,3.65,3.65,0,0,1-2.7-1A5,5,0,0,1,230.12,95.66Zm3.69.18a1.33,1.33,0,0,0,.45,1.07,1.7,1.7,0,0,0,1.14.37,1.32,1.32,0,0,0,1.17-.53,2,2,0,0,0,.39-1.21V90.91a1.3,1.3,0,0,0-.44-1,1.67,1.67,0,0,0-1.12-.36,1.8,1.8,0,0,0-1.13.36,1.26,1.26,0,0,0-.46,1Z"/><path class="cls-12" d="M244,114.92l1-4.53h-.88v-4.34h3.75v4.24L246,114.92Z"/><path class="cls-12" d="M251.53,105.33V91.12A5.35,5.35,0,0,1,252,89a4.7,4.7,0,0,1,1.12-1.62,4.91,4.91,0,0,1,1.66-1,6,6,0,0,1,2.06-.35,5.26,5.26,0,0,1,3.75,1.35A4.91,4.91,0,0,1,262,91.12v14.21a5.44,5.44,0,0,1-.41,2.16,4.75,4.75,0,0,1-1.12,1.6,4.68,4.68,0,0,1-1.66,1,6.32,6.32,0,0,1-2,.32,6.49,6.49,0,0,1-2.06-.32,4.87,4.87,0,0,1-1.66-1,4.62,4.62,0,0,1-1.12-1.6A5.27,5.27,0,0,1,251.53,105.33Zm3.69.07a1.38,1.38,0,0,0,.44,1.08,1.68,1.68,0,0,0,1.13.4,1.53,1.53,0,0,0,1.08-.4,1.37,1.37,0,0,0,.43-1.08V91a1.37,1.37,0,0,0-.43-1.08,1.49,1.49,0,0,0-1.08-.4,1.63,1.63,0,0,0-1.13.4,1.38,1.38,0,0,0-.44,1.08Z"/><path class="cls-12" d="M265.49,105.33V91.12A5.52,5.52,0,0,1,265.9,89a4.7,4.7,0,0,1,2.79-2.62,6,6,0,0,1,2.06-.35,5.28,5.28,0,0,1,3.75,1.35,4.94,4.94,0,0,1,1.44,3.79v14.21a5.27,5.27,0,0,1-.41,2.16,4.49,4.49,0,0,1-1.12,1.6,4.73,4.73,0,0,1-1.65,1,6.32,6.32,0,0,1-2,.32,6.49,6.49,0,0,1-2.06-.32,4.63,4.63,0,0,1-2.79-2.58A5.44,5.44,0,0,1,265.49,105.33Zm3.69.07a1.35,1.35,0,0,0,.44,1.08,1.66,1.66,0,0,0,1.13.4,1.53,1.53,0,0,0,1.08-.4,1.41,1.41,0,0,0,.43-1.08V91a1.41,1.41,0,0,0-.43-1.08,1.49,1.49,0,0,0-1.08-.4,1.61,1.61,0,0,0-1.13.4,1.35,1.35,0,0,0-.44,1.08Z"/><path class="cls-12" d="M286.45,110.19v-24h3.69v9.68h.16l4.52-9.68h3.87q-1.21,2.44-2.43,4.86c-.8,1.61-1.61,3.23-2.4,4.86l5.5,14.27h-3.79l-3.85-10.33-.78,1.66-.8,1.67v7Z"/><path class="cls-12" d="M301.16,110.19v-24h3.59L307.37,93l1.91,5.2h.16l1.94-5.33L314,86.2h3.61v24h-3.75V96.37h-.13l-1.52,4.28-1.7,4.31h-2.24l-1.71-4.45L305,96.3h-.18v13.89Z"/><path class="cls-13" d="M228,127.88v-.72h2.13v-2.29h.67v2.29h2.11v.72h-2.11v2.3h-.67v-2.3Z"/><path class="cls-13" d="M236.18,131.74v-10h2a3.28,3.28,0,0,1,1.25.2,1.77,1.77,0,0,1,.78.57,2.41,2.41,0,0,1,.4.92,6.29,6.29,0,0,1,.11,1.2,6.12,6.12,0,0,1-.11,1.17,2.51,2.51,0,0,1-.41.94,1.84,1.84,0,0,1-.8.61,3.21,3.21,0,0,1-1.29.22h-1.05v4.16Zm.88-5h1a2.26,2.26,0,0,0,.89-.15,1.28,1.28,0,0,0,.54-.43,1.69,1.69,0,0,0,.27-.67,4.72,4.72,0,0,0,.07-.87,5.53,5.53,0,0,0-.06-.84,1.8,1.8,0,0,0-.26-.67,1.4,1.4,0,0,0-.54-.44,2,2,0,0,0-.88-.17h-1Z"/><path class="cls-13" d="M241.62,131.74v-10h2.24a2.79,2.79,0,0,1,1.41.3,1.68,1.68,0,0,1,.71,1,5.66,5.66,0,0,1,.17,1.49v4.28a4.8,4.8,0,0,1-.18,1.45,1.86,1.86,0,0,1-.36.7,1.82,1.82,0,0,1-.52.44,1.9,1.9,0,0,1-.63.23,4.23,4.23,0,0,1-.73.06Zm.88-.8h1.26a1.36,1.36,0,0,0,1.13-.43,2,2,0,0,0,.35-1.29v-5a3,3,0,0,0-.07-.7,1.35,1.35,0,0,0-.25-.54,1.12,1.12,0,0,0-.46-.36,1.8,1.8,0,0,0-.71-.13H242.5Z"/><path class="cls-13" d="M246.89,121.75h.87l1,5.29.61,3.35h0L250,127l1-5.27h.91l-2,10h-1Z"/><path class="cls-13" d="M255,134.51v-9.83h.88v.61h0a2.23,2.23,0,0,1,.55-.52,1.66,1.66,0,0,1,.87-.18,2.34,2.34,0,0,1,.5.06,1.47,1.47,0,0,1,.52.25,1.59,1.59,0,0,1,.44.51,2.29,2.29,0,0,1,.25.89c0,.29,0,.59,0,.89v1c0,.53,0,1,0,1.46a4.11,4.11,0,0,1-.19,1.14,1.83,1.83,0,0,1-.54.78,1.66,1.66,0,0,1-1.08.29,1.58,1.58,0,0,1-.84-.2,1.5,1.5,0,0,1-.49-.48h0v3.37Zm.88-4.89a1.65,1.65,0,0,0,.27,1,1,1,0,0,0,.88.4,1,1,0,0,0,1.05-.82,4.15,4.15,0,0,0,.09-.85c0-.37,0-.77,0-1.2s0-.84,0-1.17a3.1,3.1,0,0,0-.11-.78,1,1,0,0,0-.35-.56,1.16,1.16,0,0,0-.65-.16,1.1,1.1,0,0,0-.87.36,1.39,1.39,0,0,0-.31,1Z"/><path class="cls-13" d="M259.92,129.53c0-.21,0-.42,0-.63v-1.36c0-.25,0-.49,0-.72s0-.44.06-.63a1.84,1.84,0,0,1,.76-1.29,2.2,2.2,0,0,1,1.25-.31,2.12,2.12,0,0,1,1.25.31,1.71,1.71,0,0,1,.61.8,3.6,3.6,0,0,1,.17.94c0,.39,0,.77,0,1.15v.7c0,.26,0,.52,0,.77s0,.53-.06.81a2.12,2.12,0,0,1-.27.88,1.53,1.53,0,0,1-.5.54,1.87,1.87,0,0,1-.65.27,3.23,3.23,0,0,1-.68.08,2,2,0,0,1-1.31-.38,1.89,1.89,0,0,1-.57-.92,3.71,3.71,0,0,1-.07-.44C259.94,129.92,259.93,129.73,259.92,129.53Zm.86-1c0,.4,0,.74,0,1a2.32,2.32,0,0,0,.1.7,1.17,1.17,0,0,0,1.81.49,1.18,1.18,0,0,0,.4-.65c0-.18.05-.43.07-.77s0-.68,0-1c0-.2,0-.41,0-.64s0-.43,0-.63,0-.38,0-.54a2.18,2.18,0,0,0-.07-.38,1.06,1.06,0,0,0-.4-.56,1.2,1.2,0,0,0-.68-.19,1.27,1.27,0,0,0-.61.14,1,1,0,0,0-.45.51,2.73,2.73,0,0,0-.13.79c0,.36,0,.78,0,1.27Z"/><path class="cls-13" d="M267.4,130v-5.3h.9v5a1.56,1.56,0,0,0,.24.93.94.94,0,0,0,.83.33,1.12,1.12,0,0,0,.89-.39,1.39,1.39,0,0,0,.34-.95v-5h.88v7.07h-.89V131h0a1.64,1.64,0,0,1-.63.6,1.79,1.79,0,0,1-.86.21,1.75,1.75,0,0,1-.76-.14,1.48,1.48,0,0,1-.51-.38,1.63,1.63,0,0,1-.29-.59A2.89,2.89,0,0,1,267.4,130Z"/><path class="cls-13" d="M272.36,128.29c0-.25,0-.5,0-.76s0-.5,0-.73,0-.44.06-.63a1.84,1.84,0,0,1,.11-.45,1.71,1.71,0,0,1,.65-.83,2.21,2.21,0,0,1,1.24-.3,1.81,1.81,0,0,1,1.44.52,2.09,2.09,0,0,1,.46,1.45l-.9.13v-.19a1.16,1.16,0,0,0-.24-.75,1,1,0,0,0-.81-.36,1.15,1.15,0,0,0-.59.15,1,1,0,0,0-.41.52,2.79,2.79,0,0,0-.14.9c0,.42,0,.91,0,1.49,0,.37,0,.73,0,1.07a3.3,3.3,0,0,0,.09.77,1.2,1.2,0,0,0,.37.55,1.09,1.09,0,0,0,.67.2,1,1,0,0,0,.8-.31,1.34,1.34,0,0,0,.27-.91v-.06l.9.16a1.76,1.76,0,0,1-2,1.92,2.49,2.49,0,0,1-.76-.11,1.6,1.6,0,0,1-.55-.29,1.75,1.75,0,0,1-.36-.42,1.63,1.63,0,0,1-.2-.49,3.13,3.13,0,0,1-.07-.44,4.91,4.91,0,0,1,0-.57c0-.2,0-.41,0-.63S272.36,128.48,272.36,128.29Z"/><path class="cls-13" d="M276.94,128.29c0-.25,0-.5,0-.74s0-.49,0-.72,0-.44.07-.63a1.75,1.75,0,0,1,.1-.46,1.72,1.72,0,0,1,.65-.84,2.07,2.07,0,0,1,1.23-.31,2,2,0,0,1,1.34.42,1.82,1.82,0,0,1,.57,1.2c0,.11,0,.22,0,.32s0,.21,0,.31v1.58H277.8a2.26,2.26,0,0,0,0,.27c0,.09,0,.18,0,.28,0,.25,0,.5,0,.76a2,2,0,0,0,.09.59,1,1,0,0,0,1,.72,1,1,0,0,0,.8-.33,1.4,1.4,0,0,0,.29-.85l.89.17a1.92,1.92,0,0,1-.58,1.34,2.07,2.07,0,0,1-1.45.47,2.49,2.49,0,0,1-.76-.11,2,2,0,0,1-.54-.3,1.54,1.54,0,0,1-.36-.41,1.84,1.84,0,0,1-.19-.49,3.21,3.21,0,0,1-.07-.43c0-.18,0-.37,0-.58s0-.41,0-.62S276.94,128.48,276.94,128.29Zm.88-.58h2.27V127a5.68,5.68,0,0,0,0-.59,1.55,1.55,0,0,0-.16-.5.92.92,0,0,0-.34-.34,1.08,1.08,0,0,0-.58-.13,1.2,1.2,0,0,0-.59.14,1,1,0,0,0-.43.52,2.41,2.41,0,0,0-.11.65C277.84,127,277.83,127.31,277.82,127.71Z"/><path class="cls-13" d="M281.76,130l.87-.14v0a1.19,1.19,0,0,0,.28.83,1,1,0,0,0,.76.32h0a1.06,1.06,0,0,0,.87-.3,1.44,1.44,0,0,0,.23-.9,2.33,2.33,0,0,0,0-.48.77.77,0,0,0-.18-.36,1,1,0,0,0-.35-.29,3.49,3.49,0,0,0-.6-.27,6.09,6.09,0,0,1-.92-.45,1.86,1.86,0,0,1-.55-.47,1.36,1.36,0,0,1-.27-.52,2.63,2.63,0,0,1-.07-.58,1.74,1.74,0,0,1,1.95-1.85,2,2,0,0,1,1.48.49,1.9,1.9,0,0,1,.48,1.38l-.94.13v-.1a1.07,1.07,0,0,0-.27-.8,1,1,0,0,0-.76-.3,1.28,1.28,0,0,0-.52.09,1,1,0,0,0-.33.25,1,1,0,0,0-.16.34,1.64,1.64,0,0,0-.05.37,1.38,1.38,0,0,0,.05.37.74.74,0,0,0,.2.32,2.07,2.07,0,0,0,.41.3,5.77,5.77,0,0,0,.7.29,5.32,5.32,0,0,1,.86.42,1.58,1.58,0,0,1,.49.47,1.34,1.34,0,0,1,.22.56,4.72,4.72,0,0,1,.05.68,2.32,2.32,0,0,1-.44,1.45,1.84,1.84,0,0,1-1.51.56Q281.79,131.84,281.76,130Z"/><path class="cls-13" d="M286.45,131.74v-7.07h.89v.75h0a1.73,1.73,0,0,1,.64-.62,1.81,1.81,0,0,1,.87-.21,1.73,1.73,0,0,1,.75.14,1.47,1.47,0,0,1,.81,1,2.94,2.94,0,0,1,.09.74v5.29h-.91v-5a1.53,1.53,0,0,0-.23-.89.91.91,0,0,0-.83-.34,1.12,1.12,0,0,0-.91.39,1.52,1.52,0,0,0-.32,1v4.91Z"/><path class="cls-13" d="M291.63,123V122h.89V123Zm0,8.79v-7.07h.88v7.07Z"/><path class="cls-13" d="M293.7,131.74V121.31h.87v7.14h0l.48-.77c.22-.35.44-.71.67-1.1l.66-1.11c.21-.35.37-.61.47-.79h1l-1.64,2.68c.09.18.22.48.41.89s.38.84.58,1.3.4.89.59,1.3.32.71.41.89h-1c-.05-.11-.12-.25-.2-.44s-.18-.4-.28-.64l-.32-.72-.31-.73c-.11-.23-.2-.44-.28-.63s-.14-.34-.19-.44c-.06.08-.14.21-.24.37s-.21.35-.31.54-.21.36-.31.54-.18.3-.24.38v1.77Z"/><path class="cls-13" d="M298.65,130v-5.3h.91v5a1.64,1.64,0,0,0,.23.93,1,1,0,0,0,.84.33,1.12,1.12,0,0,0,.89-.39,1.43,1.43,0,0,0,.34-.95v-5h.87v7.07h-.89V131h0a1.58,1.58,0,0,1-.63.6,2,2,0,0,1-1.61.07,1.32,1.32,0,0,1-.51-.38,1.5,1.5,0,0,1-.3-.59A2.89,2.89,0,0,1,298.65,130Z"/><path class="cls-13" d="M218.59,144.64a10,10,0,0,1,.53-3.26,11.94,11.94,0,0,1,1.31-2.68l.43.19a11.13,11.13,0,0,0-.6,1.3,13,13,0,0,0-.45,1.42,12.64,12.64,0,0,0-.29,1.49,12.4,12.4,0,0,0-.1,1.48,12.21,12.21,0,0,0,.39,3.08,11.33,11.33,0,0,0,1,2.7l-.4.23c-.24-.38-.48-.79-.71-1.23a12.07,12.07,0,0,1-.59-1.42,11.07,11.07,0,0,1-.41-1.58A9.74,9.74,0,0,1,218.59,144.64Z"/><path class="cls-13" d="M222.2,141.05v-1l1.46-1.12h.91v10h-.87v-9.06Z"/><path class="cls-13" d="M227.3,141.05v-1l1.46-1.12h.91v10h-.88v-9.06Z"/><path class="cls-13" d="M231.75,146.91l.88-.13a2.43,2.43,0,0,0,.21,1.09.92.92,0,0,0,.89.41,1,1,0,0,0,.75-.28,1.34,1.34,0,0,0,.29-.93l0-2.68a1,1,0,0,0-.28-.8,1.09,1.09,0,0,0-.75-.24,1.28,1.28,0,0,0-.63.15,1,1,0,0,0-.4.43h-.82v-5h3.74v.8h-2.92V143h.06a1.37,1.37,0,0,1,.55-.33,2,2,0,0,1,.69-.11,1.54,1.54,0,0,1,1.23.46,1.68,1.68,0,0,1,.41,1.16l0,2.8a2.14,2.14,0,0,1-.54,1.55,1.89,1.89,0,0,1-1.39.51,1.76,1.76,0,0,1-1.47-.58A2.51,2.51,0,0,1,231.75,146.91Z"/><path class="cls-13" d="M236.73,150.52l.31-1.47h-.23V148h.93V149l-.52,1.49Z"/><path class="cls-13" d="M239,147.24v-1.92a1.84,1.84,0,0,1,.23-.94,1.6,1.6,0,0,1,.59-.62,1.48,1.48,0,0,1-.59-.6,1.88,1.88,0,0,1-.23-.95v-1.47a2,2,0,0,1,.16-.79,1.69,1.69,0,0,1,.43-.58,1.81,1.81,0,0,1,.62-.35,2.11,2.11,0,0,1,.75-.13,2,2,0,0,1,.73.13,1.77,1.77,0,0,1,.61.35,1.55,1.55,0,0,1,.42.58,2,2,0,0,1,.16.79v1.47a1.82,1.82,0,0,1-.23.94,1.76,1.76,0,0,1-.57.61,1.89,1.89,0,0,1,.57.62,1.84,1.84,0,0,1,.23.94v1.92a2,2,0,0,1-.16.81,1.51,1.51,0,0,1-.42.57,1.77,1.77,0,0,1-.61.35,2.53,2.53,0,0,1-.73.11,2.67,2.67,0,0,1-.75-.11,1.81,1.81,0,0,1-.62-.35,1.65,1.65,0,0,1-.43-.57A2,2,0,0,1,239,147.24Zm.88-4.87a.92.92,0,0,0,.3.72,1.17,1.17,0,0,0,.78.26,1.09,1.09,0,0,0,.75-.26,1,1,0,0,0,.29-.72v-1.7a.92.92,0,0,0-.29-.72,1.12,1.12,0,0,0-.75-.26,1.17,1.17,0,0,0-.78.26.92.92,0,0,0-.3.72Zm0,4.94a.86.86,0,0,0,.3.71,1.17,1.17,0,0,0,.78.26,1.09,1.09,0,0,0,.75-.26.88.88,0,0,0,.29-.71v-2.18a1,1,0,0,0-.29-.72,1.18,1.18,0,0,0-1.53,0,.94.94,0,0,0-.3.72Z"/><path class="cls-13" d="M244.08,147l.88-.17a2,2,0,0,0,.21,1.09.9.9,0,0,0,.85.41,1.07,1.07,0,0,0,.77-.28,1.16,1.16,0,0,0,.31-.92v-1.6a1.46,1.46,0,0,0-.28-1,1.07,1.07,0,0,0-.82-.29h-.43v-.8H246a1.09,1.09,0,0,0,.8-.27,1.29,1.29,0,0,0,.28-.93v-1.34a1.88,1.88,0,0,0,0-.43.88.88,0,0,0-.17-.35,1,1,0,0,0-.32-.24,1,1,0,0,0-.48-.1,1,1,0,0,0-.86.41,1.94,1.94,0,0,0-.26,1l-.17,0-.27,0-.27,0-.17,0a2.93,2.93,0,0,1,.15-.87,1.78,1.78,0,0,1,.38-.69,2,2,0,0,1,.64-.45,2.5,2.5,0,0,1,1.76,0,1.41,1.41,0,0,1,.56.42,1.58,1.58,0,0,1,.31.62,3.21,3.21,0,0,1,.09.78V142c0,.18,0,.35,0,.52a1.41,1.41,0,0,1-.13.48,1.54,1.54,0,0,1-.26.42,1.61,1.61,0,0,1-.46.31v0a1.26,1.26,0,0,1,.47.29,1.32,1.32,0,0,1,.27.42,1.78,1.78,0,0,1,.11.53,6.12,6.12,0,0,1,0,.62V147a1.81,1.81,0,0,1-2,2,1.87,1.87,0,0,1-1.47-.55A2.23,2.23,0,0,1,244.08,147Z"/><path class="cls-13" d="M251.73,149V139h.88v5.49h0l2.78-5.49h.9l-2,4,2.4,6h-.92l-2-5.09-1.19,2.23V149Z"/><path class="cls-13" d="M257.37,149V139h.89c.06.15.14.37.26.66s.24.61.36.94.24.65.36.95l.25.65,1,2.79h0l.22-.59c.09-.26.2-.53.31-.82l.32-.82.22-.6s.05-.12.11-.29.13-.35.22-.57.18-.46.28-.72.19-.49.27-.72.16-.41.22-.56.1-.26.11-.3h.9v10h-.87v-7.56h-.06c-.05.12-.11.29-.2.52s-.18.46-.27.71-.18.48-.27.7a5.34,5.34,0,0,0-.19.52s0,.11-.1.24l-.19.5-.26.62-.25.62c-.07.19-.14.35-.2.49s-.09.23-.1.25h-.49l-.22-.56-.32-.79c-.11-.27-.21-.54-.31-.79s-.18-.43-.22-.56l-.92-2.44h-.06V149Z"/><path class="cls-13" d="M267.22,147.22l.87-.14v0a1.24,1.24,0,0,0,.27.83,1,1,0,0,0,.77.32h0A1,1,0,0,0,270,148a1.48,1.48,0,0,0,.23-.89,2.21,2.21,0,0,0,0-.48.85.85,0,0,0-.18-.37,1.13,1.13,0,0,0-.35-.28,4.35,4.35,0,0,0-.6-.28,5.3,5.3,0,0,1-.92-.44,2,2,0,0,1-.55-.47,1.44,1.44,0,0,1-.27-.52,2.71,2.71,0,0,1-.07-.58,1.87,1.87,0,0,1,.48-1.33,1.9,1.9,0,0,1,1.47-.52,2,2,0,0,1,1.48.49,1.9,1.9,0,0,1,.48,1.38l-.94.13v-.11a1.07,1.07,0,0,0-.27-.79,1,1,0,0,0-.76-.3,1.36,1.36,0,0,0-.53.09.8.8,0,0,0-.32.25,1,1,0,0,0-.16.34,1.57,1.57,0,0,0-.05.37,1.38,1.38,0,0,0,.05.37.74.74,0,0,0,.2.32,2.07,2.07,0,0,0,.41.3,5.77,5.77,0,0,0,.7.29,5.32,5.32,0,0,1,.86.42,1.58,1.58,0,0,1,.49.47,1.43,1.43,0,0,1,.22.56,4.68,4.68,0,0,1,0,.67,2.22,2.22,0,0,1-.45,1.45,1.79,1.79,0,0,1-1.5.57Q267.25,149.08,267.22,147.22Z"/><path class="cls-13" d="M271.72,147.05a3.63,3.63,0,0,1,.09-.8,1.81,1.81,0,0,1,.32-.72,1.62,1.62,0,0,1,.6-.53,2,2,0,0,1,1-.21H275v-1a1.35,1.35,0,0,0-.23-.82,1.08,1.08,0,0,0-.89-.31,1.27,1.27,0,0,0-.65.19.83.83,0,0,0-.43.6l-.85-.26a1.85,1.85,0,0,1,.69-1,2.17,2.17,0,0,1,1.28-.36,2.21,2.21,0,0,1,1.44.43,1.84,1.84,0,0,1,.51,1.48V149h-.89v-.65h0a1.5,1.5,0,0,1-.71.59,2.32,2.32,0,0,1-.84.14,1.47,1.47,0,0,1-1.28-.62,2,2,0,0,1-.28-.65A3.06,3.06,0,0,1,271.72,147.05Zm.88-.05a1.43,1.43,0,0,0,.25.88,1,1,0,0,0,.85.33,1.26,1.26,0,0,0,.91-.31A1.19,1.19,0,0,0,275,147v-1.42H273.9a1.23,1.23,0,0,0-1.3,1.44Z"/><path class="cls-13" d="M279.47,149V139h2a3.48,3.48,0,0,1,1.25.2,1.86,1.86,0,0,1,.78.58,2.4,2.4,0,0,1,.39.92,5.54,5.54,0,0,1,.12,1.2,5.39,5.39,0,0,1-.12,1.17,2.35,2.35,0,0,1-.4.94,1.92,1.92,0,0,1-.8.61,3.21,3.21,0,0,1-1.29.22h-1V149Zm.88-5h1a2.18,2.18,0,0,0,.88-.15,1.31,1.31,0,0,0,.55-.43,1.69,1.69,0,0,0,.27-.67,4.83,4.83,0,0,0,.07-.88,5.49,5.49,0,0,0-.06-.83,1.74,1.74,0,0,0-.26-.67,1.4,1.4,0,0,0-.54-.44,2,2,0,0,0-.89-.17h-1Z"/><path class="cls-13" d="M284.91,149V139h2.24a2.78,2.78,0,0,1,1.41.31,1.65,1.65,0,0,1,.71,1,5.6,5.6,0,0,1,.17,1.49v4.28a4.8,4.8,0,0,1-.18,1.45,1.74,1.74,0,0,1-.36.69,2,2,0,0,1-.52.45,2.15,2.15,0,0,1-.63.23,4.23,4.23,0,0,1-.73.06Zm.88-.8h1.26a1.36,1.36,0,0,0,1.13-.43,2,2,0,0,0,.35-1.29v-5a3,3,0,0,0-.07-.7,1.35,1.35,0,0,0-.25-.54,1.19,1.19,0,0,0-.46-.36,1.84,1.84,0,0,0-.71-.13h-1.25Z"/><path class="cls-13" d="M290.17,139h.88l1,5.3.61,3.35h0l.58-3.38,1-5.27h.91l-2.05,10h-1Z"/><path class="cls-13" d="M295.57,145.26v-.8h3.68v.8Z"/><path class="cls-13" d="M300,146.76c0-.2,0-.41,0-.62v-.61c0-.25,0-.5,0-.75s0-.49,0-.73a5.22,5.22,0,0,1,.06-.62,1.9,1.9,0,0,1,.1-.45,1.71,1.71,0,0,1,.66-.84,2.17,2.17,0,0,1,1.24-.32,2.1,2.1,0,0,1,1.25.32,1.64,1.64,0,0,1,.62.79,3.81,3.81,0,0,1,.16.95c0,.38,0,.77,0,1.15v.7c0,.26,0,.51,0,.77s0,.52-.06.81a2.17,2.17,0,0,1-.27.88,1.74,1.74,0,0,1-.5.54,2,2,0,0,1-.65.27,3.23,3.23,0,0,1-.68.08,2,2,0,0,1-1.31-.38,1.74,1.74,0,0,1-.57-.93,3.21,3.21,0,0,1-.07-.43C300,147.16,300,147,300,146.76Zm.86-1c0,.39,0,.74,0,1.05a2.76,2.76,0,0,0,.1.7,1.18,1.18,0,0,0,1.82.49,1.11,1.11,0,0,0,.39-.66,7.4,7.4,0,0,0,.07-.76c0-.34,0-.68,0-1,0-.2,0-.42,0-.64s0-.43,0-.63,0-.38,0-.54a1.88,1.88,0,0,0-.08-.38.93.93,0,0,0-.4-.56,1.15,1.15,0,0,0-.67-.2,1.32,1.32,0,0,0-.62.15,1,1,0,0,0-.45.51,3.21,3.21,0,0,0-.12.79c0,.35,0,.78,0,1.27Z"/><path class="cls-13" d="M305.11,149v-7.07H306v.75h0a2,2,0,0,1,.58-.62,1.46,1.46,0,0,1,.81-.22,1.62,1.62,0,0,1,.93.25,1.43,1.43,0,0,1,.52.66,2.17,2.17,0,0,1,.68-.67,1.63,1.63,0,0,1,.87-.24h.05a1.68,1.68,0,0,1,.74.15,1.27,1.27,0,0,1,.51.39,1.91,1.91,0,0,1,.29.59,2.89,2.89,0,0,1,.09.74V149h-.88v-5a1.61,1.61,0,0,0-.23-.87.93.93,0,0,0-.83-.36,1,1,0,0,0-.8.36,1.48,1.48,0,0,0-.32.91v5h-.88v-5a1.61,1.61,0,0,0-.22-.87.87.87,0,0,0-.8-.36,1,1,0,0,0-.86.39,1.57,1.57,0,0,0-.3,1V149Z"/><path class="cls-13" d="M313.25,138.89l.21-.09.21-.1a11.53,11.53,0,0,1,1.31,2.68,9.77,9.77,0,0,1,.53,3.28,9.52,9.52,0,0,1-.14,1.7,11.07,11.07,0,0,1-.41,1.58,10.61,10.61,0,0,1-.6,1.42,12.09,12.09,0,0,1-.73,1.23l-.06-.05-.11-.07-.12-.07-.08,0a11.86,11.86,0,0,0,1-2.69,12.23,12.23,0,0,0,.39-3.09,12.4,12.4,0,0,0-.1-1.48c-.07-.49-.17-1-.29-1.48s-.28-1-.45-1.43A11.13,11.13,0,0,0,313.25,138.89Z"/><g id="_Group_4" data-name="&lt;Group&gt;"><path class="cls-14" d="M121.11,139.06a12.44,12.44,0,1,1,12.44,12.44A12.43,12.43,0,0,1,121.11,139.06Z"/><path class="cls-15" d="M100.25,126.65a12.43,12.43,0,1,1-12.43,12.41A12.43,12.43,0,0,1,100.25,126.65Z"/><path class="cls-16" d="M116.9,100.85a12.43,12.43,0,1,1-12.44,12.41A12.43,12.43,0,0,1,116.9,100.85Zm2,9.2a.37.37,0,0,0,.3.13.48.48,0,0,0,.3-.15l.65-.72a.4.4,0,0,0,0-.56,3.92,3.92,0,0,0-2.21-1.32v-1.26a.44.44,0,0,0-.41-.44h-.91a.42.42,0,0,0-.41.44v1.3a3.09,3.09,0,0,0-2.42,3.06c0,2,1.51,2.71,2.69,3.34s2,1,2,2.1c0,.92-.52,1.37-1.52,1.37a3.36,3.36,0,0,1-2.3-1,.49.49,0,0,0-.32-.08.36.36,0,0,0-.31.17l-.58.82a.43.43,0,0,0,.07.55,5.41,5.41,0,0,0,2.69,1.34v1.28a.41.41,0,0,0,.41.42h.91a.43.43,0,0,0,.41-.42v-1.32a3.12,3.12,0,0,0,2.56-3.19c0-2.24-1.6-3-2.89-3.65-1.1-.54-1.8-.91-1.8-1.75a1.22,1.22,0,0,1,1.33-1.26A2.22,2.22,0,0,1,118.86,110.05Z"/><path class="cls-3" d="M120.46,115.89a3.12,3.12,0,0,1-2.56,3.19v1.32a.43.43,0,0,1-.41.42h-.91a.41.41,0,0,1-.41-.42v-1.28a5.41,5.41,0,0,1-2.69-1.34.43.43,0,0,1-.07-.55l.58-.82a.36.36,0,0,1,.31-.17.49.49,0,0,1,.32.08,3.36,3.36,0,0,0,2.3,1c1,0,1.52-.45,1.52-1.37,0-1.1-.93-1.58-2-2.1s-2.69-1.39-2.69-3.34a3.09,3.09,0,0,1,2.42-3.06v-1.3a.42.42,0,0,1,.41-.44h.91a.44.44,0,0,1,.41.44v1.26a3.92,3.92,0,0,1,2.21,1.32.4.4,0,0,1,0,.56l-.65.72a.48.48,0,0,1-.3.15.37.37,0,0,1-.3-.13,2.22,2.22,0,0,0-1.76-.82,1.22,1.22,0,0,0-1.33,1.26c0,.84.7,1.21,1.8,1.75C118.86,112.87,120.46,113.65,120.46,115.89Z"/><path class="cls-6" d="M129.34,113.26A12.44,12.44,0,1,0,116.9,125.7,12.43,12.43,0,0,0,129.34,113.26Z"/><path class="cls-6" d="M146,139.06a12.44,12.44,0,1,0-12.43,12.44A12.42,12.42,0,0,0,146,139.06Z"/><path class="cls-6" d="M138.11,135.94A4.87,4.87,0,0,0,134,133.6a5.09,5.09,0,0,0-4.82,4,6.08,6.08,0,0,0-.19,1.49,6.2,6.2,0,0,0,.19,1.52,5.09,5.09,0,0,0,4.82,4,4.86,4.86,0,0,0,4.09-2.35"/><polyline class="cls-6" points="127.06 137.57 129.21 137.57 132.05 137.57"/><polyline class="cls-6" points="127.06 140.59 129.21 140.59 132.05 140.59"/><path class="cls-6" d="M112.69,139.06a12.44,12.44,0,1,0-12.44,12.44A12.43,12.43,0,0,0,112.69,139.06Z"/><line class="cls-6" x1="95.52" y1="132.73" x2="100.04" y2="137.83"/><line class="cls-6" x1="104.97" y1="132.73" x2="100.45" y2="137.83"/><polyline class="cls-6" points="100.25 138.33 100.25 140.17 100.25 142.54 100.25 145.43"/><polyline class="cls-6" points="96.85 140.17 100.25 140.17 103.64 140.17"/><polyline class="cls-6" points="96.85 142.54 100.25 142.54 103.64 142.54"/></g></g></g></svg>